<?xml version="1.0" encoding="UTF-8" standalone="no"?>
<!-- Created with Inkscape (http://www.inkscape.org/) -->

<svg
   xmlns:dc="http://purl.org/dc/elements/1.1/"
   xmlns:cc="http://creativecommons.org/ns#"
   xmlns:rdf="http://www.w3.org/1999/02/22-rdf-syntax-ns#"
   xmlns:svg="http://www.w3.org/2000/svg"
   xmlns="http://www.w3.org/2000/svg"
   xmlns:sodipodi="http://sodipodi.sourceforge.net/DTD/sodipodi-0.dtd"
   xmlns:inkscape="http://www.inkscape.org/namespaces/inkscape"
   width="404.43924"
   height="401.92368"
   id="svg3430"
   version="1.1"
   inkscape:version="0.48.4 r9939"
   sodipodi:docname="logo_black.svg">
  <defs
     id="defs3432">
    <clipPath
       clipPathUnits="userSpaceOnUse"
       id="clipPath3814">
      <path
         style="fill:none;stroke:#000000;stroke-width:1px;stroke-linecap:butt;stroke-linejoin:miter;stroke-opacity:1"
         d="m 174.28571,323.79075 0,122.85715 220,34.28571 L 390,639.50504 154.28571,632.36218 70,546.6479 87.142857,313.79075 z"
         id="path3816"
         inkscape:connector-curvature="0"
         sodipodi:nodetypes="cccccccc" />
    </clipPath>
  </defs>
  <sodipodi:namedview
     id="base"
     pagecolor="#ffffff"
     bordercolor="#666666"
     borderopacity="1.0"
     inkscape:pageopacity="0.0"
     inkscape:pageshadow="2"
     inkscape:zoom="0.35"
     inkscape:cx="202.17893"
     inkscape:cy="199.52812"
     inkscape:document-units="px"
     inkscape:current-layer="layer1"
     showgrid="false"
     inkscape:window-width="467"
     inkscape:window-height="372"
     inkscape:window-x="851"
     inkscape:window-y="24"
     inkscape:window-maximized="0"
     fit-margin-top="0"
     fit-margin-left="0"
     fit-margin-right="0"
     fit-margin-bottom="0" />
  <metadata
     id="metadata3435">
    <rdf:RDF>
      <cc:Work
         rdf:about="">
        <dc:format>image/svg+xml</dc:format>
        <dc:type
           rdf:resource="http://purl.org/dc/dcmitype/StillImage" />
        <dc:title></dc:title>
      </cc:Work>
    </rdf:RDF>
  </metadata>
  <g
     inkscape:label="Layer 1"
     inkscape:groupmode="layer"
     id="layer1"
     transform="translate(-172.82107,-329.96664)">
    <g
       transform="translate(24.907602,-217.18961)"
       id="g3351">
      <path
         sodipodi:nodetypes="ccccc"
         inkscape:connector-curvature="0"
         id="path3041"
         d="m 174.06574,647.27111 0,190.43976 155.58282,71.44272 0,-354.15424 z"
         style="fill:#000000;stroke:none" />
      <path
         sodipodi:nodetypes="ccccc"
         inkscape:connector-curvature="0"
         id="path3041-6"
         d="m 500.19078,635.86241 0,201.83103 -172.09584,71.43094 0,-354.09583 z"
         style="fill:#000000;stroke:#ffffff;stroke-width:10;stroke-linecap:butt;stroke-linejoin:miter;stroke-miterlimit:4;stroke-opacity:1;stroke-dasharray:none" />
      <path
         sodipodi:nodetypes="cszsc"
         inkscape:connector-curvature="0"
         id="path2985-4-0"
         d="m 328.92467,941.43725 c 0,0 150.27882,-4.31141 122.9223,-114.52884 -8.54811,-34.43972 -51.73882,-94.52669 16.47777,-127.06986 68.21659,-32.54317 99.85626,60.09633 56.79109,158.83988 -39.24008,89.97305 -196.19116,82.75882 -196.19116,82.75882 z"
         style="fill:#000000;fill-opacity:1;stroke:#ffffff;stroke-width:15;stroke-linecap:butt;stroke-linejoin:miter;stroke-miterlimit:4;stroke-opacity:1;stroke-dasharray:none" />
      <path
         sodipodi:nodetypes="cszsc"
         inkscape:connector-curvature="0"
         id="path2985-4"
         d="m 169.032,864.69253 c 0,0 106.77575,102.19915 164.88807,13.21293 16.03276,-24.55064 74.46472,-116.31283 122.09939,-56.83986 47.63467,59.47298 -55.64067,126.29576 -143.66407,118.79742 C 223.67795,932.30895 169.032,864.69253 169.032,864.69253 z"
         style="fill:#000000;fill-opacity:1;stroke:#ffffff;stroke-width:15;stroke-linecap:butt;stroke-linejoin:miter;stroke-miterlimit:4;stroke-opacity:1;stroke-dasharray:none" />
      <path
         transform="translate(0,330)"
         clip-path="url(#clipPath3814)"
         sodipodi:nodetypes="cszsc"
         inkscape:connector-curvature="0"
         id="path2985"
         d="m 172.93771,336.4716 c 0,0 -46.85102,165.40881 59.40921,163.3221 64.43299,-1.26532 110.21851,-10.81078 111.62184,51.78981 1.40333,62.60059 -97.64903,69.02728 -161.76454,8.25274 -54.28155,-51.45302 -9.26651,-223.36465 -9.26651,-223.36465 z"
         style="fill:#000000;fill-opacity:1;stroke:#ffffff;stroke-width:15;stroke-miterlimit:4;stroke-opacity:1;stroke-dasharray:none" />
      <g
         transform="matrix(0.95348982,0,0,1,11.491516,330)"
         id="g4068">
        <path
           style="fill:#ffffff;fill-opacity:1;stroke:none"
           d="m 181.91842,338.42835 34.64286,-18.03571 0.17857,35.53572 -34.64285,14.82143 z"
           id="rect3850"
           inkscape:connector-curvature="0"
           sodipodi:nodetypes="ccccc" />
        <path
           style="fill:#ffffff;fill-opacity:1;stroke:none"
           d="m 229.19643,313.79074 34.64286,-18.03571 0,40.53572 -34.82142,14.28572 z"
           id="rect3850-6"
           inkscape:connector-curvature="0"
           sodipodi:nodetypes="ccccc" />
        <path
           style="fill:#ffffff;fill-opacity:1;stroke:none"
           d="m 277.4107,288.70146 34.64286,-18.03571 0,45.00001 -34.64285,14.82143 z"
           id="rect3850-6-9"
           inkscape:connector-curvature="0"
           sodipodi:nodetypes="ccccc" />
      </g>
      <g
         transform="matrix(0.95348982,0,0,1,11.491516,330)"
         id="g4073">
        <path
           style="fill:#ffffff;fill-opacity:1;stroke:none"
           d="m 182.02045,392.90334 34.82143,-12.67857 -0.17857,35.17858 -34.64285,9.46428 z"
           id="rect3850-1"
           inkscape:connector-curvature="0"
           sodipodi:nodetypes="ccccc" />
        <path
           style="fill:#ffffff;fill-opacity:1;stroke:none"
           d="m 229.01786,376.21932 34.82143,-12.67857 0,39.64287 -34.82142,9.46428 z"
           id="rect3850-1-5"
           inkscape:connector-curvature="0"
           sodipodi:nodetypes="ccccc" />
        <path
           style="fill:#ffffff;fill-opacity:1;stroke:none"
           d="m 277.41072,358.80861 34.82143,-12.67857 0,44.10716 -34.64285,9.46428 z"
           id="rect3850-1-5-2"
           inkscape:connector-curvature="0"
           sodipodi:nodetypes="ccccc" />
      </g>
      <g
         transform="matrix(0.95348982,0,0,1,11.491516,330)"
         id="g4078">
        <path
           style="fill:#ffffff;fill-opacity:1;stroke:none"
           d="m 182.34695,445.97171 34.31635,-7.12273 0.074,35.17858 -34.39031,3.40336 z"
           id="rect3850-1-0"
           inkscape:connector-curvature="0"
           sodipodi:nodetypes="ccccc" />
        <path
           style="fill:#ffffff;fill-opacity:1;stroke:none"
           d="m 229.28204,436.62779 34.31635,-6.87019 0.32654,39.72426 -34.64285,3.15083 z"
           id="rect3850-1-0-7"
           inkscape:connector-curvature="0"
           sodipodi:nodetypes="ccccc" />
        <path
           style="fill:#ffffff;fill-opacity:1;stroke:none"
           d="m 277.64309,426.65253 34.31635,-6.87019 0.074,44.77502 -34.39031,3.15083 z"
           id="rect3850-1-0-7-6"
           inkscape:connector-curvature="0"
           sodipodi:nodetypes="ccccc" />
      </g>
    </g>
  </g>
</svg>
